0.06m3min_grf.mot
version=1
nRows=30
nColumns 19
inDegrees=yes
endheader
time	1_ground_force_vx	1_ground_force_vy	1_ground_force_vz	1_ground_force_px	1_ground_force_py	1_ground_force_pz	1_ground_torque_x	1_ground_torque_y	1_ground_torque_z	2_ground_force_vx	2_ground_force_vy	2_ground_force_vz	2_ground_force_px	2_ground_force_py	2_ground_force_pz	2_ground_torque_x	2_ground_torque_y	2_ground_torque_z
            3.751500	          -28.806199	          534.839664	          -38.952577	           -0.240911	            0.006011	           -0.356148	           -0.135509	            2.515967	           -0.183239	           -6.720518	          610.929368	           70.181541	           -0.229749	            0.005503	           -0.655307	            0.002847	           -0.258762	           -0.029726
            3.752000	          -29.357552	          535.382291	          -39.407452	           -0.241056	            0.006013	           -0.356644	           -0.135654	            2.473872	           -0.182092	           -7.286787	          612.032852	           69.998010	           -0.229761	            0.005502	           -0.655169	            0.002570	           -0.215828	           -0.024684
            3.752500	          -30.000824	          538.448286	          -39.759566	           -0.241094	            0.006012	           -0.356344	           -0.138556	            2.486779	           -0.183626	           -7.571230	          612.952769	           69.954479	           -0.229845	            0.005502	           -0.655191	            0.003520	           -0.284951	           -0.032521
            3.753000	          -30.139023	          538.990009	          -39.986182	           -0.241168	            0.006012	           -0.356469	           -0.138339	            2.473985	           -0.183538	           -7.810152	          614.241136	           69.912257	           -0.229448	            0.005504	           -0.655412	            0.003849	           -0.302693	           -0.034452
            3.753500	          -30.140050	          540.253215	          -40.301767	           -0.241114	            0.006012	           -0.356430	           -0.137583	            2.466143	           -0.183969	           -8.375050	          614.976004	           69.821269	           -0.229591	            0.005503	           -0.655104	            0.005183	           -0.380606	           -0.043212
            3.754000	          -30.416300	          542.417726	          -40.612796	           -0.240853	            0.006012	           -0.356334	           -0.141066	            2.515655	           -0.188356	           -8.797405	          615.159018	           69.728249	           -0.229395	            0.005504	           -0.655129	            0.004048	           -0.283068	           -0.032086
            3.754500	          -30.554773	          543.861005	          -40.881407	           -0.240954	            0.006012	           -0.356461	           -0.138099	            2.458102	           -0.184773	           -8.941963	          616.263522	           69.685315	           -0.229411	            0.005504	           -0.655172	            0.005685	           -0.391806	           -0.044304
            3.755000	          -30.784739	          544.222732	          -41.154427	           -0.240929	            0.006012	           -0.356557	           -0.139715	            2.469919	           -0.186777	           -9.502333	          615.710470	           69.308159	           -0.229385	            0.005502	           -0.654769	            0.005463	           -0.353995	           -0.039848
            3.755500	          -30.877275	          546.386689	          -41.328347	           -0.241040	            0.006012	           -0.356411	           -0.140705	            2.489844	           -0.188330	           -9.598670	          616.446527	           69.357762	           -0.229086	            0.005503	           -0.654617	            0.005214	           -0.334822	           -0.037672
            3.756000	          -30.969923	          547.289284	          -41.645251	           -0.240937	            0.006012	           -0.356504	           -0.137997	            2.438631	           -0.185564	          -10.119439	          617.918629	           69.128590	           -0.229021	            0.005504	           -0.654951	            0.006587	           -0.402249	           -0.045001
            3.756500	          -31.154909	          549.274426	          -42.140704	           -0.240883	            0.006012	           -0.356351	           -0.139713	            2.463201	           -0.188978	          -10.451335	          619.022076	           69.226528	           -0.228929	            0.005505	           -0.655086	            0.007466	           -0.442216	           -0.049454
            3.757000	          -31.338769	          549.455351	          -42.322900	           -0.240899	            0.006013	           -0.356775	           -0.138796	            2.433481	           -0.187444	          -10.873710	          619.205136	           69.086587	           -0.228865	            0.005505	           -0.655048	            0.008196	           -0.466736	           -0.052075
            3.757500	          -31.340108	          551.800408	          -42.679698	           -0.240796	            0.006012	           -0.356438	           -0.138181	            2.432924	           -0.188178	          -11.297538	          619.757603	           68.666377	           -0.228837	            0.005504	           -0.654812	            0.008639	           -0.473910	           -0.052507
            3.758000	          -31.706917	          552.160929	          -42.677242	           -0.240860	            0.006012	           -0.356507	           -0.137609	            2.396404	           -0.185221	          -11.670323	          619.203599	           68.711501	           -0.228565	            0.005504	           -0.654471	            0.008334	           -0.442161	           -0.049066
            3.758500	          -31.616717	          554.686375	          -43.079355	           -0.240772	            0.006011	           -0.356319	           -0.140574	            2.466239	           -0.191539	          -12.001595	          620.123179	           68.714926	           -0.228584	            0.005505	           -0.654704	            0.010415	           -0.538161	           -0.059633
            3.759000	          -31.525995	          556.850564	          -43.299583	           -0.240801	            0.006011	           -0.356178	           -0.140053	            2.473783	           -0.192356	          -12.425403	          620.675479	           68.341652	           -0.228568	            0.005505	           -0.654683	            0.009643	           -0.481670	           -0.053036
            3.759500	          -31.940045	          557.393610	          -43.846511	           -0.240764	            0.006011	           -0.356321	           -0.138179	            2.411397	           -0.189689	          -12.565329	          620.491104	           68.247198	           -0.228340	            0.005505	           -0.654506	            0.011398	           -0.562860	           -0.061908
            3.760000	          -31.986021	          558.114664	          -43.843306	           -0.240819	            0.006011	           -0.356262	           -0.140835	            2.457396	           -0.193043	          -13.034678	          620.675121	           67.825694	           -0.228150	            0.005506	           -0.654466	            0.012997	           -0.618897	           -0.067631
            3.760500	          -32.033411	          559.739239	          -44.340654	           -0.240801	            0.006011	           -0.356205	           -0.139057	            2.429829	           -0.192483	          -13.641006	          619.935857	           67.964117	           -0.228183	            0.005504	           -0.654133	            0.012624	           -0.573716	           -0.062897
            3.761000	          -32.080639	          560.462455	          -44.841860	           -0.240659	            0.006012	           -0.356482	           -0.138673	            2.422675	           -0.193835	          -13.880655	          621.408806	           67.781760	           -0.228033	            0.005506	           -0.654526	            0.013887	           -0.621706	           -0.067814
            3.761500	          -32.219131	          562.626600	          -45.061526	           -0.240908	            0.006011	           -0.356275	           -0.138562	            2.419632	           -0.193792	          -14.397477	          621.776398	           67.454789	           -0.227827	            0.005506	           -0.654179	            0.014069	           -0.607586	           -0.065915
            3.762000	          -32.128274	          562.808290	          -45.381968	           -0.240826	            0.006012	           -0.356503	           -0.139739	            2.447878	           -0.197384	          -14.912305	          621.591630	           67.125863	           -0.227698	            0.005506	           -0.654124	            0.015575	           -0.649226	           -0.070110
            3.762500	          -31.992149	          564.252408	          -45.834685	           -0.240759	            0.006011	           -0.356243	           -0.139016	            2.451848	           -0.199166	          -15.384106	          622.510413	           67.176267	           -0.227614	            0.005508	           -0.654479	            0.016043	           -0.649189	           -0.070055
            3.763000	          -32.129712	          565.694114	          -45.736448	           -0.240687	            0.006011	           -0.356277	           -0.138695	            2.441949	           -0.197432	          -15.801123	          621.220012	           67.124927	           -0.227529	            0.005506	           -0.653892	            0.018582	           -0.730532	           -0.078936
            3.763500	          -32.314485	          567.138170	          -46.188368	           -0.240658	            0.006011	           -0.356113	           -0.134803	            2.365877	           -0.192680	          -16.273754	          622.324458	           66.800564	           -0.227349	            0.005507	           -0.653967	            0.020371	           -0.779017	           -0.083620
            3.764000	          -32.498885	          568.401340	          -46.503498	           -0.240649	            0.006011	           -0.356115	           -0.136963	            2.395461	           -0.195984	          -17.163320	          622.137712	           66.612573	           -0.227171	            0.005508	           -0.654004	            0.020714	           -0.750851	           -0.080394
            3.764500	          -32.454262	          569.484773	          -46.911673	           -0.240662	            0.006011	           -0.356184	           -0.136859	            2.401508	           -0.197826	          -17.490728	          621.953452	           66.330487	           -0.227011	            0.005508	           -0.653828	            0.022325	           -0.793847	           -0.084663
            3.765000	          -32.317924	          570.387806	          -47.320857	           -0.240763	            0.006011	           -0.356321	           -0.138635	            2.446810	           -0.202994	          -18.099962	          621.952760	           65.908393	           -0.226981	            0.005507	           -0.653646	            0.023141	           -0.795165	           -0.084264
            3.765500	          -32.364518	          570.749569	          -47.594333	           -0.240474	            0.006011	           -0.356305	           -0.134666	            2.374837	           -0.198036	          -18.850891	          622.318335	           65.910026	           -0.226867	            0.005507	           -0.653631	            0.023493	           -0.775559	           -0.082140
            3.766000	          -32.319718	          572.733650	          -47.861079	           -0.240834	            0.006011	           -0.356271	           -0.135992	            2.409890	           -0.201385	          -19.272059	          622.134117	           65.487195	           -0.226803	            0.005507	           -0.653546	            0.024501	           -0.790943	           -0.083256
